<svg width="20" height="20" viewBox="0 0 20 20" fill="none" xmlns="http://www.w3.org/2000/svg">
<path d="M19.6423 8.98173H3.96999L13.3503 0.838867C13.5003 0.707617 13.4093 0.463867 13.2111 0.463867H10.8405C10.7361 0.463867 10.6369 0.501367 10.5593 0.568331L0.436949 9.35137C0.344241 9.43173 0.269889 9.53108 0.218931 9.64269C0.167974 9.7543 0.141602 9.87555 0.141602 9.99824C0.141602 10.1209 0.167974 10.2422 0.218931 10.3538C0.269889 10.4654 0.344241 10.5648 0.436949 10.6451L10.6182 19.4817C10.6584 19.5165 10.7066 19.5353 10.7575 19.5353H13.2084C13.4066 19.5353 13.4977 19.2889 13.3477 19.1603L3.96999 11.0174H19.6423C19.7602 11.0174 19.8566 10.921 19.8566 10.8032V9.19601C19.8566 9.07815 19.7602 8.98173 19.6423 8.98173Z" fill="white"/>
</svg>
