<svg width="216" height="216" viewBox="0 0 216 216" fill="none" xmlns="http://www.w3.org/2000/svg">
<g clip-path="url(#clip0_361_4973)">
<path d="M120.927 166.432C166.886 166.432 204.143 129.175 204.143 83.2158C204.143 37.257 166.886 0 120.927 0C74.9682 0 37.7112 37.257 37.7112 83.2158C37.7112 129.175 74.9682 166.432 120.927 166.432Z" fill="#F2F2F2"/>
<path d="M175.307 37.214H22.8674C22.5405 37.207 22.2812 36.9364 22.2882 36.6095C22.295 36.2925 22.5504 36.0371 22.8674 36.0303H175.307C175.634 36.0373 175.894 36.3079 175.887 36.6348C175.88 36.9518 175.624 37.2072 175.307 37.214Z" fill="#CACACA"/>
<path d="M123.356 57.1609H81.2158C78.0505 57.1609 75.4846 59.7268 75.4846 62.892V62.892C75.4846 66.0573 78.0505 68.6232 81.2158 68.6232H123.356C126.521 68.6232 129.087 66.0573 129.087 62.892C129.087 59.7268 126.521 57.1609 123.356 57.1609Z" fill="white"/>
<path d="M53.9928 80.0854H150.579C153.744 80.0854 156.31 82.6514 156.31 85.8166C156.31 88.9818 153.744 91.5477 150.579 91.5477H53.9928C50.8276 91.5477 48.2617 88.9818 48.2617 85.8166C48.2617 82.6514 50.8276 80.0854 53.9928 80.0854Z" fill="white"/>
<path d="M53.9928 103.01H150.579C153.744 103.01 156.31 105.576 156.31 108.741C156.31 111.906 153.744 114.472 150.579 114.472H53.9928C50.8276 114.472 48.2617 111.906 48.2617 108.741C48.2617 105.576 50.8276 103.01 53.9928 103.01Z" fill="white"/>
<path d="M42.0235 215.496L41.7962 215.474C34.0837 214.678 27.1117 210.53 22.7324 204.132C21.5329 202.349 20.5626 200.422 19.8444 198.397L19.7754 198.204L19.9797 198.188C22.4195 197.991 24.926 197.577 26.0394 197.38L18.8597 194.948L18.8153 194.735C18.3896 192.735 19.2235 190.677 20.9214 189.538C22.6238 188.344 24.8814 188.306 26.6233 189.441C27.405 189.941 28.2226 190.435 29.0133 190.914C31.7303 192.557 34.5398 194.256 36.6463 196.582C39.8404 200.178 41.2405 205.025 40.4565 209.77L42.0235 215.496Z" fill="#F2F2F2"/>
<path d="M68.1216 211.925L71.6599 211.925L73.3435 198.276L68.1206 198.276L68.1216 211.925Z" fill="#A0616A"/>
<path d="M67.9968 215.617L78.8785 215.616V215.479C78.8783 213.14 76.9821 211.244 74.643 211.243H74.6428L72.6551 209.735L68.9465 211.244L67.9966 211.244L67.9968 215.617Z" fill="#2F2E41"/>
<path d="M39.763 202.124L42.5933 204.248L52.1314 194.34L47.9535 191.206L39.763 202.124Z" fill="#A0616A"/>
<path d="M37.4478 205.002L46.1524 211.532L46.235 211.422C47.6386 209.551 47.2598 206.897 45.3888 205.493L45.3886 205.493L44.7036 203.093L40.832 202.074L40.0721 201.504L37.4478 205.002H37.4478Z" fill="#2F2E41"/>
<path d="M51.5257 147.873C51.5257 147.873 51.7211 153.201 51.9675 157.474C52.0079 158.175 50.366 158.937 50.4085 159.699C50.4367 160.205 50.7453 160.697 50.774 161.224C50.8043 161.781 50.3782 162.273 50.4085 162.849C50.4382 163.411 50.9243 164.056 50.9536 164.632C51.2691 170.827 52.413 178.244 51.2676 180.317C50.7031 181.338 43.5078 195.494 43.5078 195.494C43.5078 195.494 47.5168 201.507 48.6622 199.503C50.175 196.855 61.8346 184.469 61.8346 182.104C61.8346 179.741 64.532 162.036 64.532 162.036L66.4129 172.514L67.2753 174.59L67.0044 175.808L67.5617 177.453L67.5918 179.081L68.1344 182.104C68.1344 182.104 66.5022 205.653 67.4214 206.309C68.3435 206.968 72.8078 208.151 73.3346 206.968C73.8587 205.785 77.2696 182.39 77.2696 182.39C77.2696 182.39 77.8194 171.669 78.4151 161.704C78.4494 161.125 78.8561 160.426 78.8876 159.857C78.9248 159.195 78.6671 158.336 78.7014 157.695C78.7386 156.959 79.0651 156.44 79.0966 155.736C79.34 150.292 77.9736 143.663 77.5384 143.01C76.224 141.04 75.0413 139.465 75.0413 139.465C75.0413 139.465 57.3381 133.649 52.6075 139.559L51.5258 147.873L51.5257 147.873Z" fill="#2F2E41"/>
<path d="M69.1823 93.0784L62.1643 91.6748L58.8893 96.1195C52.7783 102.128 52.6863 107.431 53.7772 115.932V127.863L52.9876 135.86C52.9876 135.86 50.1925 141.707 53.0754 143.068C55.9583 144.429 74.8945 144.313 76.7024 143.77C78.5104 143.226 76.9433 142.559 76.4685 140.027C75.5767 135.27 76.1732 137.565 76.2346 136.05C77.1145 114.324 75.0649 105.405 74.8568 103.061L71.2877 96.5874L69.1823 93.0784Z" fill="#3F3D56"/>
<path d="M106.171 110.595C105.44 111.981 103.723 112.512 102.338 111.78C102.19 111.702 102.049 111.612 101.917 111.509L86.7615 121.132L86.8052 115.893L101.528 107.349C102.577 106.173 104.38 106.07 105.556 107.119C106.54 107.996 106.794 109.434 106.171 110.595Z" fill="#A0616A"/>
<path d="M63.6413 99.1462L61.9158 98.9634C60.3215 98.798 58.7572 99.4808 57.7945 100.762C57.4258 101.248 57.1609 101.805 57.0164 102.398L57.0154 102.402C56.5826 104.186 57.2614 106.056 58.738 107.147L64.6976 111.541C68.8798 117.192 76.7398 120.941 85.9596 123.987L100.291 115.086L95.2218 108.947L85.392 114.215L70.7807 102.905L70.7723 102.898L65.2111 99.315L63.6413 99.1462L63.6413 99.1462Z" fill="#3F3D56"/>
<path d="M66.811 89.6322C71.3309 89.6322 74.9949 85.9682 74.9949 81.4483C74.9949 76.9285 71.3309 73.2644 66.811 73.2644C62.2912 73.2644 58.6271 76.9285 58.6271 81.4483C58.6271 85.9682 62.2912 89.6322 66.811 89.6322Z" fill="#A0616A"/>
<path d="M67.0001 89.634C66.9341 89.6362 66.868 89.6377 66.8019 89.6395C66.7736 89.7128 66.7431 89.7855 66.7079 89.8569L67.0001 89.634V89.634Z" fill="#2F2E41"/>
<path d="M69.2461 81.6754C69.2589 81.756 69.2785 81.8354 69.3048 81.9128C69.2939 81.8317 69.2743 81.7522 69.2461 81.6754Z" fill="#2F2E41"/>
<path d="M75.0994 73.6146C74.7625 74.6606 74.4619 73.3338 73.3537 73.5724C72.0207 73.8595 70.4694 73.7609 69.3778 72.9438C67.7512 71.7504 65.6433 71.4291 63.735 72.0838C61.8671 72.7446 58.7377 73.2106 58.2509 75.1312C58.0818 75.7989 58.0146 76.5234 57.6045 77.0767C57.2459 77.5605 56.68 77.8363 56.2068 78.2086C54.6089 79.4659 55.8302 83.0377 56.5865 84.925C57.3428 86.8123 59.0776 88.1872 60.9849 88.8915C62.8303 89.5728 64.8332 89.693 66.8019 89.6395C67.1443 88.7514 66.9964 87.7257 66.7138 86.8051C66.408 85.8085 65.9551 84.8466 65.8273 83.812C65.6996 82.7773 65.9801 81.6021 66.8477 81.024C67.6451 80.4926 68.9427 80.8163 69.2461 81.6754C69.0691 80.6013 70.1571 79.562 71.279 79.3792C72.4835 79.1829 73.688 79.6178 74.889 79.8342C76.0901 80.0507 75.6637 74.9943 75.0994 73.6146Z" fill="#2F2E41"/>
<path d="M120.87 94.9862C121.633 85.7681 114.779 77.6768 105.56 76.9139C96.3423 76.151 88.251 83.0053 87.4881 92.2235C86.7252 101.442 93.5795 109.533 102.798 110.296C112.016 111.059 120.107 104.204 120.87 94.9862Z" fill="#FF4D4F"/>
<path d="M108.578 86.6265L104.179 91.0259L99.7796 86.6265C99.0675 85.9144 97.9128 85.9144 97.2007 86.6265C96.4885 87.3387 96.4885 88.4933 97.2007 89.2055L101.6 93.6049L97.2007 98.0043C96.4892 98.7171 96.4903 99.8717 97.2031 100.583C97.915 101.294 99.0678 101.294 99.7796 100.583L104.179 96.1838L108.578 100.583C109.291 101.295 110.446 101.294 111.157 100.581C111.868 99.8689 111.868 98.7162 111.157 98.0043L106.758 93.6049L111.157 89.2055C111.87 88.4933 111.87 87.3387 111.157 86.6265C110.445 85.9144 109.291 85.9144 108.578 86.6265Z" fill="white"/>
<path d="M97.5792 79.5281C98.0729 81.0153 97.2675 82.6212 95.7803 83.1149C95.6217 83.1675 95.4588 83.206 95.2934 83.23L91.7451 100.829L87.9946 97.17L92.0219 80.631C91.8995 79.0602 93.0736 77.6876 94.6444 77.5652C95.9587 77.4628 97.172 78.2743 97.5792 79.5281Z" fill="#A0616A"/>
<path d="M59.8737 102.291L58.5472 103.41C57.3242 104.446 56.7339 106.047 56.9922 107.629C57.0876 108.232 57.306 108.808 57.6336 109.323L57.6363 109.327C58.624 110.874 60.4431 111.679 62.2524 111.369L69.5488 110.11C76.5221 111.004 84.669 107.928 93.2499 103.384L96.7488 86.8805L88.8096 86.2881L85.8059 97.0284L67.5285 99.7416L67.5178 99.743L61.0823 101.275L59.8737 102.291L59.8737 102.291Z" fill="#3F3D56"/>
<path d="M101.42 215.899L12.3888 216C12.1734 215.999 11.9993 215.824 12 215.609C12.0007 215.394 12.1744 215.221 12.3888 215.22L101.42 215.119C101.635 215.12 101.809 215.295 101.809 215.51C101.808 215.725 101.634 215.899 101.42 215.899Z" fill="#CACACA"/>
<path d="M30.6013 29.7164C32.1314 29.7164 33.3719 28.4483 33.3719 26.8841C33.3719 25.3198 32.1314 24.0518 30.6013 24.0518C29.0712 24.0518 27.8307 25.3198 27.8307 26.8841C27.8307 28.4483 29.0712 29.7164 30.6013 29.7164Z" fill="#3F3D56"/>
<path d="M40.1723 29.7164C41.7025 29.7164 42.9429 28.4483 42.9429 26.8841C42.9429 25.3198 41.7025 24.0518 40.1723 24.0518C38.6422 24.0518 37.4018 25.3198 37.4018 26.8841C37.4018 28.4483 38.6422 29.7164 40.1723 29.7164Z" fill="#3F3D56"/>
<path d="M49.7434 29.7164C51.2735 29.7164 52.514 28.4483 52.514 26.8841C52.514 25.3198 51.2735 24.0518 49.7434 24.0518C48.2132 24.0518 46.9728 25.3198 46.9728 26.8841C46.9728 28.4483 48.2132 29.7164 49.7434 29.7164Z" fill="#3F3D56"/>
<path d="M60.6569 29.1226C60.5718 29.1226 60.4869 29.0896 60.4227 29.024L58.5533 27.113C58.4287 26.9857 58.4287 26.7822 58.5533 26.6549L60.4227 24.744C60.5496 24.6148 60.7572 24.6127 60.886 24.7389C61.0154 24.8654 61.0177 25.0729 60.8911 25.2022L59.2458 26.8839L60.8911 28.5659C61.0177 28.6951 61.0154 28.9026 60.886 29.0292C60.8223 29.0916 60.7396 29.1226 60.6569 29.1226Z" fill="#3F3D56"/>
<path d="M63.7983 29.1226C63.7156 29.1226 63.6329 29.0915 63.5692 29.0292C63.4398 28.9026 63.4375 28.6953 63.5641 28.5659L65.2092 26.8839L63.5641 25.2022C63.4376 25.0729 63.4398 24.8654 63.5692 24.7389C63.6983 24.6122 63.9059 24.6146 64.0325 24.744L65.9018 26.6549C66.0264 26.7822 66.0264 26.9857 65.9018 27.113L64.0325 29.024C63.9683 29.0896 63.8834 29.1226 63.7983 29.1226Z" fill="#3F3D56"/>
<path d="M161.596 24.3796H158.12C157.724 24.3796 157.403 24.7007 157.403 25.0971V28.5765C157.403 28.9729 157.724 29.294 158.12 29.294H161.596C161.993 29.294 162.317 28.9729 162.317 28.5765V25.0971C162.317 24.7007 161.993 24.3796 161.596 24.3796Z" fill="#3F3D56"/>
<path d="M153.078 24.3796H149.602C149.206 24.3796 148.885 24.7007 148.885 25.0971V28.5765C148.885 28.9729 149.206 29.294 149.602 29.294H153.078C153.475 29.294 153.799 28.9729 153.799 28.5765V25.0971C153.799 24.7007 153.475 24.3796 153.078 24.3796Z" fill="#3F3D56"/>
<path d="M169.623 24.5435H166.147C165.751 24.5435 165.43 24.8645 165.43 25.2609V28.7403C165.43 29.1367 165.751 29.4578 166.147 29.4578H169.623C170.02 29.4578 170.344 29.1367 170.344 28.7403V25.2609C170.344 24.8645 170.02 24.5435 169.623 24.5435Z" fill="#3F3D56"/>
<path d="M117.229 25.8671H89.4439C88.959 25.8671 88.5691 26.2602 88.5691 26.7418C88.5691 27.2234 88.959 27.6166 89.4439 27.6166H117.229C117.711 27.6166 118.104 27.2234 118.104 26.7418C118.104 26.2602 117.711 25.8671 117.229 25.8671Z" fill="#3F3D56"/>
</g>
<defs>
<clipPath id="clip0_361_4973">
<rect width="192.143" height="216" fill="white" transform="translate(12)"/>
</clipPath>
</defs>
</svg>
