<svg width="216" height="216" viewBox="0 0 216 216" fill="none" xmlns="http://www.w3.org/2000/svg">
<g clip-path="url(#clip0_371_5320)">
<path d="M200.987 191.737H151.067V191.091H151.067C164.135 191.091 176.668 185.899 185.908 176.659C195.149 167.418 200.34 154.886 200.34 141.817V106.979H200.987V191.737Z" fill="#F2F2F2"/>
<path d="M64.7782 65.8186C63.4511 66.3242 62.096 66.7527 60.7196 67.1022C58.9014 67.5453 57.8749 67.7507 56.12 67.0696C56.0584 67.0457 55.9995 67.022 55.944 66.9988C52.6178 65.5845 49.7745 63.2338 47.7601 60.2328C45.7457 57.2318 44.6472 53.7098 44.5982 50.0958C44.5894 49.9718 44.5894 49.8415 44.5894 49.7143C44.5877 49.1018 44.617 48.4896 44.6772 47.88C44.7541 47.0497 44.8869 46.2255 45.0748 45.413L45.0572 45.4099C43.6364 43.957 43.0897 41.967 43.271 39.9673C43.3952 38.6117 43.8254 37.3019 44.5293 36.1367C45.2332 34.9714 46.1924 33.9812 47.3346 33.2405C49.1246 32.1151 51.1429 31.4026 53.2428 31.155C53.8067 31.09 54.3737 31.0571 54.9413 31.0565H60.2736C61.375 30.7986 62.4938 30.6223 63.621 30.5288H63.6297C74.3616 29.6386 82.825 36.7533 82.0356 45.4099C82.0298 45.4194 82.021 45.4289 82.0152 45.4385C81.7872 45.8104 81.5854 46.1633 81.4071 46.5003C81.2346 46.815 81.0885 47.117 80.9627 47.4031C79.9834 49.6157 84.6375 83.9444 82.9682 84.4658C82.0181 84.7614 78.1884 59.2165 78.8754 64.0741C79.7408 70.1683 69.7223 63.991 64.7782 65.8186Z" fill="#2F2E41"/>
<path d="M80.9452 127.875L95.8217 159.568L38.5951 153.772L50.5409 123.347L80.9452 127.875Z" fill="#FFB6B6"/>
<path d="M110.809 191.418C100.857 194.73 90.3702 196.135 79.8979 195.558L75.344 188.173C75.344 188.173 75.1533 190.923 74.8689 195.128C69.8838 194.551 64.9637 193.507 60.1731 192.013C51.0879 189.172 42.5716 184.77 33.939 180.71C32.1905 170.287 31.5344 154.214 41.2013 144.858L93.2331 154.392C93.2331 154.392 101.581 160.636 99.348 162.873C97.1147 165.106 96.7689 164.76 98.2362 166.228C99.7035 167.695 102.874 169.657 102.906 170.94C102.919 171.441 106.478 180.526 110.809 191.418Z" fill="#2F2E41"/>
<path d="M71.8592 66.6329L59.2885 67.5099L51.1636 75.3611L48.318 75.869C45.7602 76.3251 43.4587 77.7038 41.8499 79.7439C40.2411 81.784 39.4369 84.3435 39.5897 86.9371C40.175 96.8537 41.4855 111.671 44.2246 116.478C48.4718 123.932 51.9799 121.593 48.4718 123.932C44.9637 126.271 42.6084 124.433 44.2246 128.129C45.8407 131.825 42.0403 136.566 42.0403 136.566L40.5274 138.079L42.132 138.737L93.2609 145.39C93.2609 145.39 88.84 125.512 91.6048 120.629C94.3696 115.746 101.073 100.986 95.0903 95.211L89.2405 74.6251L79.1781 71.6574L71.8592 66.6329Z" fill="#6C63FF"/>
<path d="M147.956 148.215C147.115 148.189 146.289 147.98 145.537 147.603C144.784 147.226 144.122 146.69 143.597 146.032C143.073 145.374 142.697 144.61 142.496 143.792C142.295 142.975 142.275 142.123 142.435 141.297L118.452 125.055L121.314 117.316L149.658 136.816C151.029 137.19 152.215 138.054 152.991 139.244C153.767 140.434 154.08 141.867 153.87 143.272C153.66 144.677 152.942 145.956 151.852 146.868C150.762 147.779 149.376 148.258 147.956 148.215V148.215Z" fill="#FFB6B6"/>
<path d="M80.2143 73.6529L76.7292 75.0328L95.3202 111.342L133.806 137.576L139.354 128.199L110.058 102.895L98.3291 80.4005C96.6785 77.2349 93.9134 74.7932 90.5679 73.547C87.2223 72.3008 83.5337 72.3385 80.2143 73.6529Z" fill="#6C63FF"/>
<path d="M64.9198 63.4396C71.8912 63.4396 77.5426 57.7881 77.5426 50.8168C77.5426 43.8454 71.8912 38.194 64.9198 38.194C57.9484 38.194 52.297 43.8454 52.297 50.8168C52.297 57.7881 57.9484 63.4396 64.9198 63.4396Z" fill="#FFB6B6"/>
<path d="M75.8965 45.479C75.686 45.59 75.4784 45.6924 75.2679 45.7947C75.0487 45.8999 74.8294 46.0052 74.6073 46.1046C70.3829 48.0194 66.942 48.2328 64.8547 45.479C64.7976 44.0301 64.4714 42.6046 63.8929 41.2751C63.9951 42.7608 63.6036 44.2387 62.7791 45.479H58.5752C54.2456 48.3527 52.0238 50.9925 55.029 60.4264C55.2249 61.0462 56.5668 83.0654 56.9497 84.7581C50.3954 82.244 44.7415 55.5501 44.5983 48.5164C44.5895 48.4024 44.5895 48.2825 44.5895 48.1656C44.5878 47.6021 44.6171 47.039 44.6772 46.4788C44.7543 45.7139 44.8872 44.9557 45.0748 44.2102L45.0572 44.2073C44.3904 43.5697 43.8816 42.7852 43.5715 41.9163C43.2614 41.0474 43.1585 40.1181 43.271 39.2023C44.3705 37.7627 45.7312 36.5428 47.282 35.6065C48.6921 34.9237 50.1619 34.3718 51.673 33.9577C51.711 33.949 51.7431 33.9402 51.7811 33.9314C52.243 33.8057 52.7166 33.6917 53.1902 33.5923C54.1662 33.3876 55.153 33.2383 56.1458 33.145C56.2189 33.1421 56.289 33.1362 56.3534 33.1362C56.7505 33.1365 57.1402 33.2435 57.4818 33.4461C57.4847 33.4461 57.4847 33.449 57.4906 33.449C57.8188 33.6451 58.0909 33.9224 58.2809 34.2542C58.4709 34.586 58.5722 34.9611 58.5752 35.3434H63.2585C63.431 35.3434 63.6035 35.3493 63.7759 35.358C70.2981 35.6182 75.5398 38.4072 75.876 44.8183C75.8906 45.0404 75.8965 45.2568 75.8965 45.479Z" fill="#2F2E41"/>
<path d="M48.2078 45.9864C52.8006 45.9864 56.5238 42.2632 56.5238 37.6704C56.5238 33.0776 52.8006 29.3544 48.2078 29.3544C43.615 29.3544 39.8918 33.0776 39.8918 37.6704C39.8918 42.2632 43.615 45.9864 48.2078 45.9864Z" fill="#2F2E41"/>
<path d="M59.6247 33.8241C58.68 38.3186 54.0188 41.0068 49.5596 39.9071C47.4182 39.3791 45.5743 38.022 44.4335 36.1344C43.2927 34.2468 42.9485 31.9834 43.4765 29.842C44.5761 25.3828 49.9879 26.6684 53.5416 23.7589C58.5689 19.6431 60.8988 27.7628 59.6247 33.8241Z" fill="#2F2E41"/>
<path d="M41.1479 158.935C48.2355 130.032 62.2788 105.19 85.5363 85.7261C86.4364 84.2453 87.8871 83.1821 89.5702 82.7696C91.2532 82.3572 93.0311 82.6291 94.5139 83.5259L149.803 117.049C151.284 117.949 152.347 119.4 152.76 121.083C153.172 122.766 152.9 124.544 152.003 126.026C143.126 155.684 129.83 181.419 107.615 199.236C106.715 200.716 105.264 201.78 103.581 202.192C101.898 202.605 100.12 202.333 98.6374 201.436L43.3482 167.913C41.8675 167.013 40.8042 165.562 40.3917 163.879C39.9792 162.196 40.2512 160.418 41.1479 158.935V158.935Z" fill="#F2F2F2"/>
<path opacity="0.2" d="M50.975 168.676C49.4943 167.776 48.431 166.325 48.0186 164.642C47.6061 162.959 47.878 161.181 48.7748 159.698C55.8623 130.795 69.9057 105.953 93.1631 86.489C93.759 85.5198 94.6002 84.7251 95.6018 84.1854L94.5139 83.5257C93.0311 82.629 91.2532 82.3571 89.5702 82.7695C87.8871 83.182 86.4364 84.2451 85.5363 85.7258C62.2788 105.19 48.2355 130.032 41.1479 158.935C40.2512 160.418 39.9792 162.196 40.3917 163.879C40.8042 165.562 41.8674 167.013 43.3482 167.913L98.6372 201.436C99.6213 202.028 100.744 202.349 101.893 202.368C103.041 202.386 104.174 202.1 105.176 201.539L50.975 168.676Z" fill="black"/>
<path d="M115.815 152.528L78.7024 130.166C78.1127 129.81 77.6886 129.234 77.5232 128.565C77.3578 127.896 77.4646 127.189 77.8201 126.599C78.1757 126.009 78.7509 125.584 79.4194 125.418C80.088 125.252 80.7952 125.358 81.3857 125.713L118.498 148.074C119.087 148.431 119.509 149.007 119.674 149.675C119.838 150.343 119.731 151.049 119.376 151.638C119.021 152.228 118.447 152.652 117.779 152.819C117.112 152.986 116.405 152.881 115.815 152.528L115.815 152.528Z" fill="white"/>
<path d="M94.2252 122.874L86.0605 117.954C85.4688 117.6 85.042 117.026 84.8739 116.357C84.7058 115.688 84.8102 114.98 85.1642 114.389C85.5182 113.797 86.0927 113.37 86.7614 113.202C87.4301 113.034 88.1382 113.138 88.7299 113.492L88.7439 113.501L96.9086 118.42C97.497 118.777 97.9198 119.353 98.0845 120.021C98.2492 120.689 98.1422 121.395 97.787 121.985C97.4319 122.574 96.8575 122.999 96.1899 123.166C95.5222 123.332 94.8157 123.227 94.2252 122.874V122.874Z" fill="white"/>
<path d="M109.917 162.317L72.804 139.955C72.2137 139.6 71.7887 139.025 71.6223 138.356C71.456 137.687 71.5619 136.98 71.9168 136.389C72.2717 135.799 72.8466 135.373 73.5151 135.206C74.1836 135.039 74.8911 135.144 75.4821 135.499L75.4873 135.502L112.6 157.864C113.188 158.221 113.611 158.796 113.775 159.464C113.94 160.132 113.833 160.838 113.478 161.428C113.123 162.017 112.549 162.442 111.881 162.608C111.213 162.775 110.507 162.67 109.917 162.317L109.917 162.317Z" fill="white"/>
<path d="M120.528 110.364C126.515 110.364 131.368 105.511 131.368 99.5242C131.368 93.5376 126.515 88.6844 120.528 88.6844C114.541 88.6844 109.688 93.5376 109.688 99.5242C109.688 105.511 114.541 110.364 120.528 110.364Z" fill="#3F3D56"/>
<path d="M101.843 215.677C114.639 215.677 125.012 205.304 125.012 192.508C125.012 179.713 114.639 169.34 101.843 169.34C89.0473 169.34 78.6744 179.713 78.6744 192.508C78.6744 205.304 89.0473 215.677 101.843 215.677Z" fill="white"/>
<path d="M101.843 216C97.1967 216 92.6548 214.622 88.7916 212.041C84.9285 209.46 81.9175 205.791 80.1394 201.498C78.3614 197.206 77.8962 192.482 78.8026 187.925C79.709 183.368 81.9464 179.182 85.2317 175.897C88.5171 172.612 92.7029 170.374 97.2598 169.468C101.817 168.561 106.54 169.027 110.833 170.805C115.125 172.583 118.794 175.594 121.376 179.457C123.957 183.32 125.335 187.862 125.335 192.508C125.328 198.736 122.85 204.707 118.446 209.112C114.042 213.516 108.071 215.993 101.843 216V216ZM101.843 169.663C97.3246 169.663 92.9076 171.003 89.1507 173.513C85.3938 176.023 82.4657 179.591 80.7366 183.766C79.0075 187.94 78.5551 192.534 79.4366 196.965C80.3181 201.397 82.4939 205.467 85.6889 208.662C88.8839 211.857 92.9546 214.033 97.3862 214.915C101.818 215.796 106.411 215.344 110.586 213.615C114.76 211.885 118.328 208.957 120.838 205.2C123.349 201.443 124.688 197.026 124.688 192.508C124.681 186.451 122.272 180.644 117.989 176.362C113.707 172.079 107.9 169.67 101.843 169.663V169.663Z" fill="#3F3D56"/>
<path d="M98.6823 204.566C98.2822 204.566 97.8876 204.473 97.5298 204.294C97.172 204.115 96.8608 203.855 96.6208 203.535L90.3 195.107C90.0966 194.837 89.9486 194.529 89.8644 194.201C89.7801 193.873 89.7613 193.531 89.8091 193.196C89.8568 192.861 89.9702 192.538 90.1427 192.247C90.3151 191.955 90.5433 191.701 90.8142 191.498C91.0851 191.295 91.3934 191.147 91.7215 191.063C92.0495 190.979 92.3909 190.96 92.7261 191.008C93.0613 191.056 93.3837 191.17 93.675 191.343C93.9662 191.516 94.2206 191.744 94.4235 192.015L98.5588 197.528L109.18 181.597C109.367 181.316 109.609 181.074 109.89 180.885C110.171 180.697 110.487 180.566 110.819 180.5C111.15 180.433 111.492 180.433 111.824 180.499C112.156 180.564 112.472 180.695 112.754 180.882C113.035 181.07 113.277 181.312 113.465 181.593C113.654 181.874 113.785 182.19 113.851 182.521C113.918 182.853 113.918 183.195 113.852 183.527C113.787 183.859 113.656 184.175 113.468 184.456L100.827 203.419C100.598 203.762 100.291 204.045 99.93 204.244C99.5693 204.444 99.1661 204.554 98.754 204.565C98.7301 204.566 98.7062 204.566 98.6823 204.566Z" fill="#6C63FF"/>
<path d="M176.666 75.1006C177.587 75.0219 178.289 74.4389 178.234 73.7984C178.179 73.1579 177.389 72.7026 176.468 72.7813C175.547 72.86 174.845 73.443 174.9 74.0835C174.955 74.7239 175.746 75.1793 176.666 75.1006Z" fill="white"/>
<path d="M187.025 71.5866C187.945 71.5078 188.647 70.9248 188.593 70.2844C188.538 69.6439 187.747 69.1885 186.827 69.2673C185.906 69.346 185.204 69.929 185.259 70.5694C185.313 71.2099 186.104 71.6653 187.025 71.5866Z" fill="#3F3D56"/>
<path d="M171.756 67.1975C172.677 67.1188 173.379 66.5358 173.324 65.8953C173.269 65.2549 172.478 64.7995 171.558 64.8782C170.637 64.9569 169.935 65.5399 169.99 66.1804C170.045 66.8209 170.835 67.2762 171.756 67.1975Z" fill="#FF6584"/>
<path d="M167.411 64.651C167.807 64.5614 168.024 64.0271 167.895 63.4575C167.767 62.8878 167.341 62.4987 166.945 62.5882C166.549 62.6777 166.332 63.2121 166.46 63.7817C166.589 64.3513 167.015 64.7405 167.411 64.651Z" fill="#E6E6E6"/>
<path d="M164.317 58.4687C164.713 58.3792 164.93 57.8448 164.802 57.2752C164.673 56.7056 164.247 56.3164 163.851 56.4059C163.455 56.4955 163.238 57.0298 163.367 57.5994C163.495 58.1691 163.921 58.5582 164.317 58.4687Z" fill="#3F3D56"/>
<path d="M179.16 67.1508C179.556 67.0612 179.773 66.5269 179.644 65.9573C179.516 65.3877 179.09 64.9985 178.694 65.088C178.298 65.1775 178.081 65.7119 178.209 66.2815C178.338 66.8511 178.764 67.2403 179.16 67.1508Z" fill="#E6E6E6"/>
<path d="M174.635 70.9067C175.032 70.8172 175.249 70.2828 175.12 69.7132C174.991 69.1436 174.566 68.7544 174.169 68.8439C173.773 68.9335 173.556 69.4678 173.685 70.0374C173.814 70.607 174.239 70.9962 174.635 70.9067Z" fill="#FF6584"/>
<path d="M182.872 73.966C183.268 73.8764 183.485 73.3421 183.357 72.7725C183.228 72.2028 182.802 71.8137 182.406 71.9032C182.01 71.9927 181.793 72.5271 181.922 73.0967C182.05 73.6663 182.476 74.0555 182.872 73.966Z" fill="#3F3D56"/>
<path d="M133.899 27.2111C134.057 26.588 133.458 25.8989 132.563 25.6719C131.667 25.4449 130.813 25.766 130.655 26.3891C130.497 27.0122 131.095 27.7013 131.991 27.9283C132.887 28.1553 133.741 27.8342 133.899 27.2111Z" fill="white"/>
<path d="M122.96 27.1406C123.118 26.5175 122.52 25.8284 121.625 25.6014C120.729 25.3744 119.875 25.6955 119.717 26.3186C119.559 26.9417 120.157 27.6309 121.053 27.8578C121.948 28.0848 122.803 27.7637 122.96 27.1406Z" fill="#3F3D56"/>
<path d="M135.951 36.286C136.109 35.6629 135.511 34.9738 134.615 34.7468C133.72 34.5198 132.866 34.8409 132.708 35.464C132.55 36.0871 133.148 36.7762 134.044 37.0032C134.939 37.2302 135.793 36.9091 135.951 36.286Z" fill="#FF6584"/>
<path d="M138.501 39.708C138.566 39.1276 138.291 38.6206 137.887 38.5755C137.484 38.5303 137.104 38.9643 137.039 39.5446C136.974 40.125 137.249 40.632 137.653 40.6771C138.056 40.7223 138.436 40.2883 138.501 39.708Z" fill="#E6E6E6"/>
<path d="M139.401 46.5623C139.465 45.9819 139.191 45.4749 138.787 45.4298C138.383 45.3847 138.003 45.8186 137.938 46.3989C137.874 46.9793 138.148 47.4863 138.552 47.5315C138.956 47.5766 139.336 47.1427 139.401 46.5623Z" fill="#3F3D56"/>
<path d="M128.218 33.4999C128.283 32.9196 128.008 32.4125 127.604 32.3674C127.2 32.3223 126.821 32.7562 126.756 33.3365C126.691 33.9169 126.966 34.424 127.369 34.4691C127.773 34.5142 128.153 34.0803 128.218 33.4999Z" fill="#E6E6E6"/>
<path d="M133.722 31.432C133.787 30.8516 133.513 30.3446 133.109 30.2995C132.705 30.2543 132.325 30.6883 132.26 31.2686C132.196 31.849 132.47 32.356 132.874 32.4011C133.278 32.4463 133.658 32.0123 133.722 31.432Z" fill="#FF6584"/>
<path d="M126.941 25.8449C127.006 25.2646 126.731 24.7575 126.327 24.7124C125.924 24.6673 125.544 25.1012 125.479 25.6816C125.414 26.2619 125.689 26.769 126.092 26.8141C126.496 26.8592 126.876 26.4253 126.941 25.8449Z" fill="#3F3D56"/>
<path d="M15.6464 84.758H15V0H64.9198V0.646398H64.9197C51.8516 0.646398 39.3188 5.83768 30.0782 15.0782C20.8377 24.3187 15.6464 36.8516 15.6464 49.9197V84.758Z" fill="#F2F2F2"/>
<path d="M44.5953 159.241C43.7692 158.903 43.0265 158.389 42.4185 157.735C41.8105 157.081 41.3518 156.303 41.0741 155.455C40.7964 154.606 40.7063 153.708 40.8101 152.821C40.9139 151.934 41.209 151.081 41.6751 150.319L23.8651 125.284L29.5787 118.655L50.5145 148.545C51.7378 149.425 52.5959 150.723 52.9261 152.193C53.2563 153.663 53.0357 155.204 52.3061 156.522C51.5765 157.841 50.3885 158.846 48.9674 159.347C47.5462 159.848 45.9906 159.81 44.5953 159.241H44.5953Z" fill="#FFB6B6"/>
<path d="M45.0045 79.9051C44.1035 79.375 43.043 79.1834 42.0134 79.3646C40.9838 79.5459 40.0526 80.0882 39.3868 80.8942L15.3231 114.549L37.6239 146.222L46.3502 136.849L32.7759 115.518L50.8163 98.3416C52.2988 95.0938 52.5252 91.4119 51.4519 88.007C50.3785 84.602 48.0815 81.7156 45.0045 79.9051V79.9051Z" fill="#6C63FF"/>
</g>
<defs>
<clipPath id="clip0_371_5320">
<rect width="185.987" height="216" fill="white" transform="translate(15)"/>
</clipPath>
</defs>
</svg>
