<svg width="216" height="216" viewBox="0 0 216 216" fill="none" xmlns="http://www.w3.org/2000/svg">
<g clip-path="url(#clip0_371_5151)">
<path d="M165.375 170.678C162.609 168.341 160.93 164.65 161.37 161.056C161.811 157.462 164.539 154.159 168.078 153.396C171.617 152.633 175.652 154.745 176.726 158.202C177.318 151.537 178 144.592 181.543 138.916C184.752 133.777 190.31 130.099 196.333 129.441C202.356 128.783 208.698 131.268 212.454 136.022C216.211 140.776 217.13 147.687 214.499 153.145C212.561 157.166 208.991 160.158 205.25 162.593C193.161 170.393 178.661 173.565 164.42 171.525L165.375 170.678Z" fill="#F2F2F2"/>
<path d="M206.498 131.406C201.528 135.454 196.969 139.981 192.886 144.922C186.496 152.629 181.326 161.27 177.554 170.543C177.278 171.22 178.377 171.514 178.65 170.845C184.82 155.774 194.671 142.49 207.301 132.209C207.868 131.747 207.06 130.948 206.498 131.406Z" fill="white"/>
<path d="M69.5339 170.043C73.3322 166.833 75.6393 161.763 75.0342 156.827C74.4292 151.892 70.6818 147.354 65.8208 146.306C60.9598 145.258 55.4187 148.159 53.9422 152.908C53.1297 143.753 52.1934 134.215 47.3261 126.418C42.9189 119.359 35.2855 114.308 27.0127 113.404C18.7399 112.501 10.0297 115.914 4.8702 122.443C-0.289265 128.973 -1.55254 138.466 2.06101 145.962C4.72299 151.485 9.62729 155.595 14.7658 158.938C31.1593 169.606 51.4955 174.054 70.8457 171.207" fill="#F2F2F2"/>
<path d="M13.051 116.103C19.8771 121.663 26.1394 127.881 31.7472 134.668C37.3558 141.448 42.2937 148.756 46.4913 156.489C48.8376 160.827 50.9453 165.29 52.8051 169.858C53.1842 170.787 51.6754 171.192 51.3004 170.273C48.0063 162.22 43.9309 154.509 39.1327 147.251C34.3577 140.019 28.8925 133.268 22.8138 127.091C19.3757 123.6 15.7482 120.3 11.9477 117.206C11.1687 116.572 12.2785 115.474 13.051 116.103L13.051 116.103Z" fill="white"/>
<path d="M155.048 171.855H64.4276V78.8759C64.4276 59.0938 80.5214 43 100.303 43H119.173C138.955 43 155.048 59.0938 155.048 78.8759V171.855Z" fill="#F2F2F2"/>
<path d="M136.179 171.855H64.4276V78.8759C64.4078 71.2958 66.8081 63.9074 71.279 57.7862C71.4438 57.5616 71.6082 57.3399 71.7777 57.1206C73.9402 54.2843 76.5137 51.7864 79.4132 49.7094C79.577 49.5902 79.7414 49.4731 79.9083 49.356C82.3345 47.677 84.959 46.3045 87.7221 45.2696C87.8862 45.2075 88.0532 45.1451 88.2203 45.0854C90.7192 44.1936 93.3096 43.5827 95.9437 43.264C96.107 43.2417 96.2747 43.2243 96.4423 43.2068C99.0093 42.9324 101.598 42.9324 104.165 43.2068C104.332 43.2243 104.5 43.2417 104.665 43.2643C107.299 43.583 109.888 44.1938 112.387 45.0854C112.554 45.1452 112.721 45.2075 112.885 45.2698C115.614 46.2916 118.208 47.6436 120.608 49.2958C120.775 49.4103 120.942 49.5274 121.106 49.6445C122.732 50.8047 124.258 52.0971 125.671 53.5087C126.803 54.641 127.859 55.8479 128.83 57.1213C128.999 57.3399 129.163 57.5616 129.328 57.7859C133.799 63.9071 136.199 71.2957 136.179 78.8759V171.855Z" fill="#CCCCCC"/>
<path d="M130.345 130.269C132.539 130.269 134.317 128.49 134.317 126.297C134.317 124.103 132.539 122.324 130.345 122.324C128.151 122.324 126.372 124.103 126.372 126.297C126.372 128.49 128.151 130.269 130.345 130.269Z" fill="#7B63FF"/>
<path d="M147.625 169.07H144.581L143.133 157.33L147.625 157.33L147.625 169.07Z" fill="#FFB8B8"/>
<path d="M142.407 168.201H148.277V171.897H138.71C138.71 171.411 138.806 170.931 138.992 170.482C139.178 170.034 139.45 169.626 139.793 169.283C140.136 168.94 140.544 168.668 140.992 168.482C141.441 168.296 141.921 168.201 142.407 168.201Z" fill="#2F2E41"/>
<path d="M162.769 169.07H159.726L158.277 157.33L162.77 157.33L162.769 169.07Z" fill="#FFB8B8"/>
<path d="M157.551 168.201H163.421V171.897H153.855C153.855 171.411 153.951 170.931 154.137 170.482C154.322 170.034 154.595 169.626 154.938 169.283C155.281 168.94 155.688 168.668 156.137 168.482C156.585 168.296 157.066 168.201 157.551 168.201Z" fill="#2F2E41"/>
<path d="M132.355 127.084C132.136 126.761 131.991 126.394 131.929 126.009C131.867 125.624 131.89 125.23 131.997 124.855C132.104 124.48 132.291 124.133 132.547 123.839C132.802 123.544 133.119 123.309 133.475 123.15L143.822 94.6315L148.914 97.41L137.099 124.663C137.327 125.279 137.32 125.957 137.081 126.569C136.842 127.18 136.387 127.682 135.802 127.981C135.218 128.279 134.544 128.352 133.908 128.187C133.273 128.022 132.72 127.629 132.355 127.084Z" fill="#FFB8B8"/>
<path d="M161.215 132.442C160.876 132.248 160.585 131.983 160.36 131.664C160.136 131.345 159.984 130.981 159.916 130.597C159.847 130.213 159.864 129.819 159.964 129.442C160.064 129.065 160.246 128.715 160.496 128.416L157.291 98.2483L163.085 98.513L164.417 128.187C164.892 128.641 165.183 129.253 165.236 129.907C165.289 130.562 165.101 131.213 164.706 131.737C164.311 132.262 163.738 132.623 163.094 132.753C162.451 132.883 161.782 132.773 161.215 132.442Z" fill="#FFB8B8"/>
<path d="M151.971 89.349C155.339 89.349 158.069 86.6189 158.069 83.2511C158.069 79.8833 155.339 77.1532 151.971 77.1532C148.603 77.1532 145.873 79.8833 145.873 83.2511C145.873 86.6189 148.603 89.349 151.971 89.349Z" fill="#FFB8B8"/>
<path d="M161.176 125.581H142.792L142.814 125.438C142.847 125.224 146.09 103.977 143.698 97.0265C143.458 96.3434 143.479 95.5957 143.757 94.9272C144.035 94.2588 144.551 93.7168 145.205 93.4057H145.205C148.624 91.7956 155.187 89.8129 160.727 94.6246C161.542 95.3443 162.179 96.2438 162.586 97.2519C162.994 98.2601 163.162 99.3492 163.076 100.433L161.176 125.581Z" fill="#7B63FF"/>
<path d="M146.322 107.117L138.046 105.438L141.925 96.2446C142.158 95.3542 142.733 94.5922 143.527 94.1257C144.32 93.6593 145.266 93.5265 146.157 93.7566C147.048 93.9866 147.811 94.5606 148.28 95.3527C148.748 96.1449 148.883 97.0904 148.655 97.982L146.322 107.117Z" fill="#7B63FF"/>
<path d="M156.923 110.235L156.425 98.8289C156.048 96.6848 157.275 94.6578 159.163 94.3265C161.051 93.9964 162.895 95.4835 163.274 97.6434L165.144 108.301L156.923 110.235Z" fill="#7B63FF"/>
<path d="M160.564 124.216C163.522 135.482 163.845 149.805 163.047 165.429L159.074 164.933L151.874 135.14L147.902 165.429L143.433 165.181C142.098 148.788 140.798 134.714 142.936 125.457L160.564 124.216Z" fill="#2F2E41"/>
<path d="M155.989 87.9638C154.851 89.1755 152.739 88.525 152.591 86.8696C152.579 86.741 152.58 86.6117 152.593 86.4833C152.67 85.75 153.093 85.0843 152.992 84.31C152.969 84.1173 152.897 83.9337 152.783 83.7765C151.877 82.5626 149.749 84.3194 148.893 83.2205C148.369 82.5467 148.985 81.4858 148.583 80.7327C148.051 79.7387 146.478 80.229 145.491 79.6847C144.393 79.079 144.458 77.3943 145.181 76.3695C146.063 75.1198 147.608 74.4529 149.134 74.3568C150.661 74.2607 152.177 74.6733 153.602 75.2286C155.221 75.8596 156.826 76.7316 157.822 78.1552C159.034 79.8865 159.151 82.214 158.545 84.2384C158.176 85.4699 156.918 86.9742 155.989 87.9638Z" fill="#2F2E41"/>
<path d="M208.547 172.015H25.2466C25.1683 172.015 25.0934 171.983 25.0381 171.928C24.9829 171.873 24.9518 171.798 24.9518 171.719C24.9518 171.641 24.9829 171.566 25.0381 171.511C25.0934 171.455 25.1683 171.424 25.2466 171.424H208.547C208.625 171.424 208.7 171.455 208.756 171.511C208.811 171.566 208.842 171.641 208.842 171.719C208.842 171.798 208.811 171.873 208.756 171.928C208.7 171.983 208.625 172.015 208.547 172.015Z" fill="#3F3D56"/>
<path d="M116.441 144.917H84.1655C83.7404 144.919 83.3318 144.753 83.0293 144.454C82.7267 144.156 82.555 143.749 82.5517 143.324V71.2824C82.555 70.8573 82.7267 70.4509 83.0293 70.1523C83.3318 69.8537 83.7404 69.6873 84.1655 69.6896H116.441C116.866 69.6873 117.275 69.8537 117.578 70.1523C117.88 70.4509 118.052 70.8573 118.055 71.2824V143.324C118.052 143.749 117.88 144.156 117.578 144.454C117.275 144.753 116.866 144.919 116.441 144.917Z" fill="white"/>
<path d="M118.055 93.0002H82.5517V93.4968H118.055V93.0002Z" fill="#CCCCCC"/>
<path d="M118.179 121.331H82.6758V121.828H118.179V121.331Z" fill="#CCCCCC"/>
<path d="M94.2207 69.6897H93.7241V145.166H94.2207V69.6897Z" fill="#CCCCCC"/>
<path d="M106.634 69.6897H106.138V145.166H106.634V69.6897Z" fill="#CCCCCC"/>
</g>
<defs>
<clipPath id="clip0_371_5151">
<rect width="216" height="129.138" fill="white" transform="translate(0 43)"/>
</clipPath>
</defs>
</svg>
