<svg width="216" height="216" viewBox="0 0 216 216" fill="none" xmlns="http://www.w3.org/2000/svg">
<g clip-path="url(#clip0_371_5273)">
<path d="M63.4782 198.973C66.9457 196.043 69.0519 191.414 68.4995 186.908C67.9472 182.403 64.5261 178.26 60.0885 177.303C55.6509 176.347 50.5923 178.995 49.2444 183.33C48.5026 174.973 47.6479 166.265 43.2045 159.148C39.1811 152.703 32.2125 148.092 24.6602 147.267C17.1078 146.442 9.15617 149.558 4.44605 155.519C-0.264075 161.48 -1.41733 170.146 1.88152 176.99C4.31167 182.031 8.78885 185.783 13.4798 188.836C28.6381 198.616 46.8184 202.593 64.6757 200.035" fill="#F2F2F2"/>
<path d="M11.9145 149.731C18.1461 154.806 23.8629 160.483 28.9823 166.679C36.9942 176.342 43.4775 187.176 48.2063 198.804C48.5524 199.653 47.175 200.022 46.8327 199.183C43.8255 191.831 40.105 184.792 35.7246 178.166C28.8939 167.815 20.5253 158.567 10.9072 150.738C10.1961 150.159 11.2092 149.156 11.9145 149.731V149.731Z" fill="white"/>
<path d="M65.8732 198.973C62.4058 196.043 60.2996 191.414 60.8519 186.908C61.4043 182.403 64.8253 178.26 69.263 177.303C73.7006 176.347 78.7592 178.995 80.107 183.33C80.8488 174.973 81.7036 166.265 86.147 159.148C90.1703 152.703 97.1389 148.092 104.691 147.267C112.244 146.442 120.195 149.558 124.905 155.519C129.616 161.48 130.769 170.146 127.47 176.99C125.04 182.031 120.563 185.783 115.872 188.836C100.713 198.616 82.5331 202.593 64.6757 200.035" fill="#F2F2F2"/>
<path d="M117.437 149.731C111.205 154.806 105.489 160.483 100.369 166.679C92.3573 176.342 85.874 187.176 81.1452 198.804C80.799 199.653 82.1765 200.022 82.5188 199.183C90.256 180.285 102.608 163.629 118.444 150.738C119.155 150.159 118.142 149.156 117.437 149.731V149.731Z" fill="white"/>
<path d="M76.1628 99.1779C82.5775 99.1779 87.7777 93.9777 87.7777 87.5629C87.7777 81.1482 82.5775 75.948 76.1628 75.948C69.748 75.948 64.5479 81.1482 64.5479 87.5629C64.5479 93.9777 69.748 99.1779 76.1628 99.1779Z" fill="#F2F2F2"/>
<path d="M50.3508 47.5243H130.374V51.9025H60.5665C56.462 51.9025 52.3978 52.7109 48.6058 54.2816C44.8138 55.8523 41.3682 58.1545 38.466 61.0568C35.5637 63.9591 33.2615 67.4046 31.6908 71.1966C30.12 74.9886 29.3116 79.0528 29.3116 83.1573V132.899H20.5553C20.1682 132.899 19.797 132.745 19.5233 132.471C19.2497 132.198 19.0959 131.826 19.0959 131.439V78.7791C19.0959 74.6747 19.9043 70.6104 21.475 66.8184C23.0457 63.0264 25.3479 59.5809 28.2502 56.6786C31.1525 53.7763 34.598 51.4741 38.39 49.9034C42.1821 48.3327 46.2463 47.5243 50.3508 47.5243Z" fill="white"/>
<path d="M60.2549 47.5243H140.279V51.9025H70.4706C66.3662 51.9025 62.3019 52.7109 58.5099 54.2816C54.7179 55.8523 51.2724 58.1545 48.3701 61.0568C45.4678 63.9591 43.1656 67.4046 41.5949 71.1966C40.0242 74.9886 39.2157 79.0528 39.2157 83.1573V132.899H30.4594C30.0723 132.899 29.7011 132.745 29.4275 132.471C29.1538 132.198 29 131.826 29 131.439V78.7791C29 74.6747 29.8084 70.6104 31.3791 66.8184C32.9498 63.0264 35.2521 59.5809 38.1543 56.6786C41.0566 53.7763 44.5021 51.4741 48.2942 49.9034C52.0862 48.3327 56.1504 47.5243 60.2549 47.5243Z" fill="white"/>
<path d="M70.2549 47.5243H150.279V51.9025H80.4706C76.3662 51.9025 72.3019 52.7109 68.5099 54.2816C64.7179 55.8523 61.2724 58.1545 58.3701 61.0568C55.4678 63.9591 53.1656 67.4046 51.5949 71.1966C50.0242 74.9886 49.2157 79.0528 49.2157 83.1573V132.899H40.4594C40.0723 132.899 39.7011 132.745 39.4275 132.471C39.1538 132.198 39 131.826 39 131.439V78.7791C39 74.6747 39.8084 70.6104 41.3791 66.8184C42.9498 63.0264 45.2521 59.5809 48.1543 56.6786C51.0566 53.7763 54.5021 51.4741 58.2942 49.9034C62.0862 48.3327 66.1504 47.5243 70.2549 47.5243Z" fill="white"/>
<path d="M40.3508 47.5243H120.374V51.9025H50.5665C46.462 51.9025 42.3978 52.7109 38.6058 54.2816C34.8138 55.8523 31.3682 58.1545 28.466 61.0568C25.5637 63.9591 23.2615 67.4046 21.6908 71.1966C20.12 74.9886 19.3116 79.0528 19.3116 83.1573V132.899H10.5553C10.1682 132.899 9.79703 132.745 9.52334 132.471C9.24965 132.198 9.09589 131.826 9.09589 131.439V78.7791C9.09588 74.6747 9.90432 70.6104 11.475 66.8184C13.0457 63.0264 15.3479 59.5809 18.2502 56.6786C21.1525 53.7763 24.598 51.4741 28.39 49.9034C32.1821 48.3327 36.2463 47.5243 40.3508 47.5243Z" fill="#F2F2F2"/>
<path d="M55.743 199.216V132.711H75.2261V199.216C75.2256 199.663 75.0478 200.092 74.7317 200.408C74.4156 200.724 73.9871 200.902 73.5401 200.902H57.429C56.982 200.902 56.5535 200.724 56.2374 200.408C55.9213 200.092 55.7435 199.663 55.743 199.216Z" fill="#3F3D56"/>
<path d="M4.97449 131.4V77.3214C4.98421 68.7124 8.40841 60.4589 14.4959 54.3714C20.5833 48.2839 28.8369 44.8597 37.4458 44.85H120V133.273H6.84786C6.35119 133.273 5.87502 133.075 5.52382 132.724C5.17262 132.373 4.97506 131.897 4.97449 131.4ZM119.25 45.5993H37.4458C29.0355 45.6089 20.9724 48.9541 15.0255 54.901C9.07852 60.848 5.73335 68.9111 5.72384 77.3214V131.4C5.72416 131.698 5.84269 131.984 6.05342 132.194C6.26414 132.405 6.54985 132.524 6.84786 132.524H119.25V45.5993Z" fill="#3F3D56"/>
<path d="M76.1628 93.5578C74.3748 93.5558 72.6605 92.8446 71.3962 91.5802C70.1318 90.3159 69.4207 88.6017 69.4186 86.8136V38.4805C69.4183 38.1825 69.2998 37.8968 69.0891 37.6861C68.8783 37.4753 68.5926 37.3568 68.2946 37.3565H42.0673C41.5707 37.3559 41.0945 37.1584 40.7433 36.8072C40.3921 36.456 40.1945 35.9798 40.194 35.4831V17.8734C40.1945 17.3767 40.3921 16.9005 40.7433 16.5493C41.0945 16.1981 41.5707 16.0006 42.0673 16H81.0336C81.5303 16.0006 82.0064 16.1981 82.3576 16.5493C82.7088 16.9005 82.9064 17.3767 82.907 17.8734V86.8136C82.9049 88.6017 82.1938 90.3159 80.9294 91.5802C79.6651 92.8446 77.9508 93.5558 76.1628 93.5578Z" fill="#7B63FF"/>
<path d="M122.997 44.1006C128.649 44.0888 134.075 46.3228 138.08 50.3111C142.085 54.2995 144.342 59.7155 144.354 65.3677V126.93H186.317C188.003 126.927 189.621 127.593 190.816 128.783C192.01 129.972 192.683 131.588 192.687 133.273H101.641V65.3677C101.653 59.7155 103.909 54.2995 107.914 50.3111C111.919 46.3228 117.345 44.0888 122.997 44.1006Z" fill="#3F3D56"/>
<path d="M117.872 79.1581L122.295 97.4258L208.8 76.4846L204.378 58.2169C204.324 57.9935 204.215 57.7873 204.061 57.6173C203.907 57.4473 203.712 57.3191 203.494 57.2446C203.334 57.1882 203.165 57.1627 202.995 57.1694L152.991 31.2786C152.698 31.129 152.361 31.089 152.041 31.1659C151.721 31.2428 151.439 31.4315 151.246 31.6979L127.147 65.304L118.062 77.9765C118.046 77.9987 118.034 78.0242 118.028 78.0513C118.023 78.0783 118.023 78.1063 118.029 78.1332C117.844 78.441 117.788 78.8092 117.872 79.1581Z" fill="white"/>
<path d="M118.029 78.1332C118.033 78.157 118.042 78.1797 118.055 78.2C118.068 78.2203 118.085 78.2378 118.105 78.2516C118.128 78.2677 118.155 78.2788 118.183 78.2843C118.211 78.2898 118.239 78.2896 118.267 78.2836C118.312 78.2716 118.352 78.2441 118.379 78.206L118.41 78.1627L118.883 77.5012L127.474 65.525L151.566 31.9267C151.704 31.7363 151.905 31.6015 152.133 31.5468C152.362 31.492 152.602 31.521 152.811 31.6284L202.427 57.3186L202.873 57.5497C202.891 57.5572 202.909 57.5637 202.928 57.569C202.961 57.5629 202.995 57.5597 203.03 57.5593C203.076 57.5437 203.115 57.5109 203.138 57.4676C203.15 57.4448 203.158 57.4198 203.16 57.3941C203.162 57.3684 203.16 57.3425 203.152 57.3178C203.145 57.2932 203.132 57.2702 203.116 57.2504C203.099 57.2305 203.079 57.2141 203.056 57.2021L202.995 57.1694L152.991 31.2786C152.698 31.129 152.361 31.089 152.041 31.1659C151.721 31.2428 151.439 31.4315 151.246 31.6979L127.147 65.304L118.062 77.9765C118.046 77.9987 118.034 78.0242 118.028 78.0513C118.023 78.0783 118.023 78.1063 118.029 78.1332Z" fill="#3F3D56"/>
<path d="M144.009 79.996L145.935 80.2096L160.226 81.7927L169.7 82.8416L170.259 82.9038L182.081 73.67L182.534 73.3163L185.326 71.1356L195.26 63.3775L195.32 62.8325L198.853 30.9424C198.901 30.5033 198.773 30.0629 198.497 29.718C198.221 29.373 197.82 29.1516 197.381 29.1022L150.226 23.8785C149.787 23.8306 149.347 23.9586 149.002 24.2345C148.657 24.5104 148.435 24.9118 148.386 25.3507L145.894 47.8453L144.512 60.3167L143.275 71.4739L142.702 76.6554L142.535 78.1562C142.487 78.5955 142.616 79.0358 142.892 79.3806C143.168 79.7255 143.57 79.9468 144.009 79.996Z" fill="#E6E6E6"/>
<path d="M156.967 52.043L177.393 54.3053L184.637 55.1073C184.957 55.1428 185.28 55.1149 185.59 55.0252C185.899 54.9355 186.187 54.7859 186.438 54.5848C186.689 54.3837 186.898 54.1351 187.053 53.8532C187.209 53.5712 187.307 53.2615 187.342 52.9417C187.378 52.6219 187.35 52.2982 187.26 51.9892C187.17 51.6802 187.021 51.3918 186.82 51.1406C186.618 50.8895 186.37 50.6803 186.088 50.5252C185.806 50.3701 185.496 50.272 185.176 50.2366L176.167 49.2388L157.508 47.1699C156.862 47.0985 156.214 47.2866 155.707 47.6928C155.199 48.099 154.874 48.6901 154.802 49.3361C154.731 49.9821 154.918 50.6301 155.324 51.1377C155.73 51.6453 156.321 51.9709 156.967 52.043Z" fill="white"/>
<path d="M155.804 61.0786C155.857 61.088 155.91 61.0975 155.963 61.1026L179.675 63.7295L183.634 64.1689C184.28 64.2404 184.928 64.0522 185.435 63.6459C185.943 63.2395 186.268 62.6482 186.339 62.0021C186.411 61.3559 186.223 60.7078 185.816 60.2004C185.41 59.693 184.819 59.3677 184.173 59.2963L178.448 58.6629L159.666 56.5817L156.505 56.2314C155.873 56.1609 155.238 56.339 154.735 56.728C154.231 57.117 153.899 57.6864 153.808 58.3159C153.717 58.9454 153.875 59.5857 154.247 60.1012C154.62 60.6168 155.178 60.9673 155.804 61.0786V61.0786Z" fill="white"/>
<path d="M153.121 69.0905C153.315 69.4131 153.581 69.6866 153.898 69.8897C154.215 70.0928 154.575 70.22 154.949 70.2615L164.668 71.3379L181.977 73.2555L181.981 73.2546L182.534 73.3162L185.326 71.1356C185.343 70.9699 185.344 70.8029 185.327 70.6372C185.268 70.081 185.021 69.5615 184.626 69.1647C184.232 68.7679 183.714 68.5176 183.158 68.4552L180.754 68.188L171.216 67.1325L164.353 66.3714L155.488 65.3889C155.034 65.3386 154.575 65.4164 154.162 65.6135C153.75 65.8106 153.401 66.1191 153.154 66.5041C152.908 66.8892 152.774 67.3355 152.768 67.7925C152.762 68.2496 152.884 68.6992 153.121 69.0905L153.121 69.0905Z" fill="white"/>
<path d="M166.771 40.9982L171.853 41.561L174.098 41.8103L177.489 42.1856C178.135 42.2571 178.783 42.0689 179.291 41.6626C179.798 41.2562 180.123 40.6649 180.195 40.0188C180.266 39.3726 180.078 38.7245 179.672 38.2171C179.265 37.7097 178.674 37.3844 178.028 37.313L167.312 36.1269C166.667 36.0551 166.019 36.2429 165.511 36.6489C165.003 37.0549 164.678 37.6459 164.606 38.2918C164.534 38.9378 164.722 39.5858 165.128 40.0934C165.534 40.6009 166.125 40.9264 166.771 40.9981V40.9982Z" fill="white"/>
<path d="M125.214 54.566L131.41 80.1615L141.752 82.1279L151.318 83.9491L161.582 85.9021L164.861 86.5262C165.053 86.5624 165.251 86.5574 165.44 86.5115C165.63 86.4655 165.808 86.3796 165.962 86.2595L168.593 84.2046L170.259 82.9038L182.081 73.67L174.564 42.6193C174.49 42.3104 174.328 42.0295 174.098 41.8103C173.896 41.6164 173.649 41.4765 173.379 41.4033C173.109 41.3301 172.825 41.3262 172.553 41.3917L126.442 52.5543C126.012 52.6585 125.642 52.929 125.412 53.3061C125.181 53.6833 125.11 54.1365 125.214 54.566Z" fill="#7B63FF"/>
<path d="M139.422 74.9282C139.575 75.5596 139.973 76.1043 140.528 76.4427C141.082 76.7812 141.748 76.8857 142.38 76.7334L169.437 70.1834C170.068 70.0297 170.613 69.6319 170.951 69.0774C171.29 68.5228 171.394 67.8567 171.242 67.2251C171.235 67.1938 171.227 67.1629 171.216 67.1327C171.043 66.5237 170.641 66.0052 170.095 65.686C169.548 65.3667 168.899 65.2713 168.284 65.4199L141.227 71.9698C140.596 72.1232 140.051 72.5209 139.712 73.0756C139.374 73.6302 139.269 74.2965 139.422 74.9282Z" fill="white"/>
<path d="M141.752 82.1279L151.318 83.9492L171.582 79.0437C172.214 78.8907 172.759 78.4931 173.097 77.9383C173.436 77.3835 173.54 76.717 173.387 76.0853C173.234 75.4536 172.837 74.9085 172.282 74.57C171.727 74.2315 171.06 74.1272 170.429 74.2801L143.372 80.83C142.806 80.9658 142.308 81.2997 141.968 81.771C141.886 81.8837 141.813 82.0031 141.752 82.1279Z" fill="white"/>
<path d="M161.582 85.902L164.861 86.5261C165.053 86.5624 165.251 86.5574 165.44 86.5114C165.63 86.4655 165.808 86.3796 165.962 86.2595L168.593 84.2046L161.582 85.902Z" fill="white"/>
<path d="M144.874 61.2033C145.027 61.8347 145.425 62.3794 145.979 62.7178C146.534 63.0563 147.2 63.1608 147.832 63.0085L158.312 60.4715C158.943 60.3178 159.487 59.92 159.826 59.3655C160.164 58.8109 160.269 58.1448 160.117 57.5132C160.035 57.1738 159.881 56.856 159.665 56.5816C159.376 56.2108 158.985 55.9312 158.54 55.7762C158.096 55.6213 157.616 55.5976 157.159 55.708L146.679 58.2449C146.047 58.3979 145.502 58.7955 145.164 59.3503C144.825 59.9051 144.721 60.5716 144.874 61.2033V61.2033Z" fill="white"/>
<path d="M151.317 83.949L161.582 85.9024L164.861 86.5268C165.053 86.5626 165.25 86.5574 165.44 86.5115C165.63 86.4656 165.808 86.3799 165.962 86.2603L168.595 84.2049L167.671 84.4286L165.72 85.9501C165.61 86.0356 165.483 86.0967 165.348 86.1295C165.212 86.1624 165.071 86.1661 164.934 86.1405L162.506 85.6787L152.241 83.7253L151.317 83.949ZM181.98 73.2562L182.08 73.669L182.535 73.315L181.98 73.2562ZM151.317 83.949L161.582 85.9024L164.861 86.5268C165.053 86.5626 165.25 86.5574 165.44 86.5115C165.63 86.4656 165.808 86.3799 165.962 86.2603L168.595 84.2049L167.671 84.4286L165.72 85.9501C165.61 86.0356 165.483 86.0967 165.348 86.1295C165.212 86.1624 165.071 86.1661 164.934 86.1405L162.506 85.6787L152.241 83.7253L151.317 83.949ZM151.317 83.949L161.582 85.9024L164.861 86.5268C165.053 86.5626 165.25 86.5574 165.44 86.5115C165.63 86.4656 165.808 86.3799 165.962 86.2603L168.595 84.2049L167.671 84.4286L165.72 85.9501C165.61 86.0356 165.483 86.0967 165.348 86.1295C165.212 86.1624 165.071 86.1661 164.934 86.1405L162.506 85.6787L152.241 83.7253L151.317 83.949ZM117.872 79.1581L129.456 127.008C129.542 127.362 129.765 127.667 130.075 127.856C130.386 128.046 130.759 128.104 131.113 128.019L214.95 107.724C215.304 107.638 215.609 107.415 215.799 107.104C215.988 106.794 216.047 106.421 215.961 106.067L204.378 58.2169C204.324 57.9936 204.215 57.7873 204.061 57.6173C203.907 57.4474 203.712 57.3191 203.494 57.2446C203.334 57.1882 203.165 57.1627 202.995 57.1694C202.797 57.1751 202.603 57.2262 202.427 57.3186C202.346 57.357 202.27 57.4044 202.2 57.4599L195.319 62.8327L185.327 70.6384L181.979 73.2533L181.98 73.2561L181.977 73.2568L169.7 82.8403L167.671 84.4285L165.72 85.9501C165.61 86.0356 165.483 86.0967 165.348 86.1295C165.212 86.1623 165.071 86.1661 164.934 86.1405L162.506 85.6787L152.241 83.7253L141.967 81.7712L119.463 77.4887C119.271 77.4507 119.073 77.455 118.883 77.5013C118.627 77.5638 118.395 77.6985 118.213 77.8894C118.144 77.9644 118.082 78.0461 118.029 78.1333C117.844 78.441 117.788 78.8092 117.872 79.1581ZM151.317 83.949L161.582 85.9024L164.861 86.5268C165.053 86.5626 165.25 86.5574 165.44 86.5115C165.63 86.4656 165.808 86.3799 165.962 86.2603L168.595 84.2049L167.671 84.4286L165.72 85.9501C165.61 86.0356 165.483 86.0967 165.348 86.1295C165.212 86.1624 165.071 86.1661 164.934 86.1405L162.506 85.6787L152.241 83.7253L151.317 83.949ZM151.317 83.949L161.582 85.9024L164.861 86.5268C165.053 86.5626 165.25 86.5574 165.44 86.5115C165.63 86.4656 165.808 86.3799 165.962 86.2603L168.595 84.2049L167.671 84.4286L165.72 85.9501C165.61 86.0356 165.483 86.0967 165.348 86.1295C165.212 86.1624 165.071 86.1661 164.934 86.1405L162.506 85.6787L152.241 83.7253L151.317 83.949ZM151.317 83.949L161.582 85.9024L164.861 86.5268C165.053 86.5626 165.25 86.5574 165.44 86.5115C165.63 86.4656 165.808 86.3799 165.962 86.2603L168.595 84.2049L167.671 84.4286L165.72 85.9501C165.61 86.0356 165.483 86.0967 165.348 86.1295C165.212 86.1624 165.071 86.1661 164.934 86.1405L162.506 85.6787L152.241 83.7253L151.317 83.949Z" fill="white"/>
<path d="M151.317 83.949L161.582 85.9024L164.861 86.5268C165.053 86.5626 165.25 86.5574 165.44 86.5115C165.63 86.4655 165.808 86.3799 165.962 86.2603L168.595 84.2049L167.671 84.4285L165.72 85.9501C165.61 86.0356 165.483 86.0967 165.348 86.1295C165.212 86.1623 165.071 86.1661 164.934 86.1405L162.506 85.6787L152.241 83.7253L151.317 83.949ZM181.98 73.2562L182.08 73.669L182.535 73.315L181.98 73.2562ZM151.317 83.949L161.582 85.9024L164.861 86.5268C165.053 86.5626 165.25 86.5574 165.44 86.5115C165.63 86.4655 165.808 86.3799 165.962 86.2603L168.595 84.2049L167.671 84.4285L165.72 85.9501C165.61 86.0356 165.483 86.0967 165.348 86.1295C165.212 86.1623 165.071 86.1661 164.934 86.1405L162.506 85.6787L152.241 83.7253L151.317 83.949ZM151.317 83.949L161.582 85.9024L164.861 86.5268C165.053 86.5626 165.25 86.5574 165.44 86.5115C165.63 86.4655 165.808 86.3799 165.962 86.2603L168.595 84.2049L167.671 84.4285L165.72 85.9501C165.61 86.0356 165.483 86.0967 165.348 86.1295C165.212 86.1623 165.071 86.1661 164.934 86.1405L162.506 85.6787L152.241 83.7253L151.317 83.949ZM118.41 78.1628L118.461 78.201C118.47 78.187 118.485 78.1745 118.496 78.1599C118.609 78.0417 118.75 77.9536 118.906 77.9034C119.062 77.8532 119.228 77.8425 119.389 77.8722L141.752 82.1263L151.317 83.949L161.582 85.9024L164.861 86.5268C165.053 86.5626 165.25 86.5574 165.44 86.5115C165.63 86.4655 165.808 86.3799 165.962 86.2603L168.595 84.2049L167.671 84.4285L165.72 85.9501C165.61 86.0356 165.483 86.0967 165.348 86.1295C165.212 86.1623 165.071 86.1661 164.934 86.1405L162.506 85.6787L152.241 83.7253L141.967 81.7712L119.463 77.4887C119.271 77.4507 119.073 77.455 118.883 77.5013L118.41 78.1628ZM117.872 79.1581L129.456 127.008C129.542 127.362 129.765 127.667 130.075 127.856C130.386 128.046 130.759 128.104 131.113 128.019L214.95 107.724C215.304 107.638 215.609 107.415 215.799 107.104C215.988 106.794 216.047 106.421 215.961 106.067L204.378 58.2169C204.324 57.9936 204.215 57.7873 204.061 57.6173C203.907 57.4474 203.712 57.3191 203.494 57.2446C203.334 57.1882 203.165 57.1627 202.995 57.1694C202.797 57.1751 202.603 57.2262 202.427 57.3186C202.346 57.357 202.27 57.4044 202.2 57.4599L195.319 62.8327L185.327 70.6384L181.979 73.2533L181.98 73.2561L181.977 73.2568L169.7 82.8403L167.671 84.4285L165.72 85.9501C165.61 86.0356 165.483 86.0967 165.348 86.1295C165.212 86.1623 165.071 86.1661 164.934 86.1405L162.506 85.6787L152.241 83.7253L141.967 81.7712L119.463 77.4887C119.271 77.4507 119.073 77.455 118.883 77.5013C118.627 77.5638 118.395 77.6985 118.213 77.8894C118.144 77.9643 118.082 78.046 118.029 78.1333C117.844 78.441 117.788 78.8092 117.872 79.1581ZM118.254 79.0656C118.22 78.9246 118.218 78.7777 118.248 78.6357C118.278 78.4937 118.339 78.3601 118.427 78.2449C118.435 78.2279 118.447 78.213 118.461 78.201C118.47 78.187 118.485 78.1745 118.496 78.1599C118.609 78.0418 118.75 77.9536 118.906 77.9034C119.062 77.8532 119.228 77.8425 119.389 77.8722L141.752 82.1263L151.317 83.949L161.582 85.9024L164.861 86.5268C165.053 86.5626 165.25 86.5574 165.44 86.5115C165.63 86.4655 165.808 86.3799 165.962 86.2603L168.595 84.2049L170.26 82.904L182.08 73.669L182.535 73.315L185.325 71.1353L195.261 63.376L202.444 57.7665C202.553 57.6814 202.679 57.6205 202.813 57.5878C202.851 57.5786 202.889 57.5723 202.928 57.5691C202.961 57.5629 202.995 57.5597 203.03 57.5593C203.144 57.5582 203.258 57.5768 203.367 57.6144C203.522 57.6683 203.661 57.76 203.771 57.8813C203.881 58.0026 203.96 58.1495 203.999 58.3087L215.582 106.159C215.613 106.284 215.618 106.414 215.598 106.542C215.578 106.669 215.533 106.791 215.466 106.902C215.399 107.012 215.311 107.108 215.206 107.184C215.102 107.26 214.984 107.314 214.859 107.344L131.021 127.64C130.768 127.701 130.501 127.658 130.279 127.523C130.058 127.387 129.899 127.168 129.838 126.915L118.254 79.0656ZM151.317 83.949L161.582 85.9024L164.861 86.5268C165.053 86.5626 165.25 86.5574 165.44 86.5115C165.63 86.4656 165.808 86.3799 165.962 86.2603L168.595 84.2049L167.671 84.4286L165.72 85.9501C165.61 86.0356 165.483 86.0967 165.348 86.1295C165.212 86.1624 165.071 86.1661 164.934 86.1405L162.506 85.6787L152.241 83.7253L151.317 83.949ZM151.317 83.949L161.582 85.9024L164.861 86.5268C165.053 86.5626 165.25 86.5574 165.44 86.5115C165.63 86.4656 165.808 86.3799 165.962 86.2603L168.595 84.2049L167.671 84.4286L165.72 85.9501C165.61 86.0356 165.483 86.0967 165.348 86.1295C165.212 86.1624 165.071 86.1661 164.934 86.1405L162.506 85.6787L152.241 83.7253L151.317 83.949ZM151.317 83.949L161.582 85.9024L164.861 86.5268C165.053 86.5626 165.25 86.5574 165.44 86.5115C165.63 86.4656 165.808 86.3799 165.962 86.2603L168.595 84.2049L167.671 84.4286L165.72 85.9501C165.61 86.0356 165.483 86.0967 165.348 86.1295C165.212 86.1624 165.071 86.1661 164.934 86.1405L162.506 85.6787L152.241 83.7253L151.317 83.949Z" fill="#3F3D56"/>
<path d="M193.1 98.3227C192.911 97.5387 193.041 96.7117 193.461 96.0232C193.881 95.3348 194.557 94.8411 195.34 94.6504L205.922 92.0889C206.705 91.9023 207.53 92.0336 208.216 92.454C208.903 92.8745 209.394 93.5499 209.584 94.3322C209.773 95.1146 209.645 95.9401 209.227 96.6279C208.809 97.3158 208.135 97.8099 207.353 98.002L196.772 100.564C195.988 100.752 195.161 100.623 194.472 100.202C193.784 99.7824 193.29 99.1064 193.1 98.3227Z" fill="#7B63FF"/>
<path d="M76.1628 89.4364C77.6113 89.4364 78.7855 88.2621 78.7855 86.8136C78.7855 85.3652 77.6113 84.1909 76.1628 84.1909C74.7143 84.1909 73.54 85.3652 73.54 86.8136C73.54 88.2621 74.7143 89.4364 76.1628 89.4364Z" fill="white"/>
</g>
<defs>
<clipPath id="clip0_371_5273">
<rect width="216" height="184.902" fill="white" transform="translate(0 16)"/>
</clipPath>
</defs>
</svg>
